<svg width="836" height="85" viewBox="0 0 836 85" fill="none" xmlns="http://www.w3.org/2000/svg">
    <style>
        .laravel { fill: #1B1B18 } @media (prefers-color-scheme:dark) { .laravel { fill: #fff } }
        .telescope { fill: #868682 } @media (prefers-color-scheme:dark) { .telescope { fill: #A1A09A } }
        .mcp { fill: #1B1B18 } @media (prefers-color-scheme:dark) { .mcp { fill: #fff } }
    </style>
    <path class="laravel" d="M10.2488 2.17578H0V66.3381H29.5007V56.8971H10.2488V2.17578Z" />
    <path class="laravel" d="M65.6852 29.3985C64.3765 27.2597 62.5205 25.5799 60.1145 24.3573C57.7085 23.1352 55.2865 22.5239 52.8511 22.5239C49.6997 22.5239 46.8187 23.1199 44.2053 24.3112C41.5893 25.5026 39.3465 27.1387 37.4758 29.2153C35.6038 31.2933 34.1479 33.692 33.1081 36.41C32.0671 39.1301 31.5479 41.9877 31.5479 44.981C31.5479 48.0371 32.0671 50.9089 33.1081 53.5969C34.1479 56.2867 35.6038 58.67 37.4758 60.7466C39.3465 62.8246 41.5893 64.4589 44.2053 65.6502C46.8187 66.8415 49.6997 67.4375 52.8511 67.4375C55.2865 67.4375 57.7085 66.8261 60.1145 65.6047C62.5205 64.3834 64.3778 62.7029 65.6852 60.5635V66.3383H75.3987V23.6243H65.6852V29.3985ZM64.794 50.2052C64.1998 51.8556 63.3675 53.2915 62.2983 54.5135C61.2278 55.7361 59.9365 56.7136 58.4217 57.4467C56.9056 58.1803 55.2263 58.5465 53.385 58.5465C51.5424 58.5465 49.879 58.1803 48.3937 57.4467C46.907 56.7131 45.6304 55.7361 44.5613 54.5135C43.4921 53.2915 42.6745 51.8556 42.1098 50.2052C41.5451 48.5557 41.2641 46.8137 41.2641 44.981C41.2641 43.1476 41.5451 41.4058 42.1098 39.7561C42.6732 38.1064 43.4921 36.6711 44.5613 35.4485C45.6304 34.2271 46.9084 33.2483 48.3937 32.5154C49.879 31.7818 51.5424 31.4155 53.385 31.4155C55.2263 31.4155 56.9056 31.7818 58.4217 32.5154C59.9365 33.249 61.2278 34.2271 62.2983 35.4485C63.3675 36.6711 64.1998 38.1064 64.794 39.7561C65.3868 41.4058 65.6852 43.1476 65.6852 44.981C65.6852 46.8137 65.3868 48.5557 64.794 50.2052Z" />
    <path class="laravel" d="M144.652 29.3985C143.343 27.2597 141.487 25.5799 139.081 24.3573C136.675 23.1352 134.253 22.5239 131.817 22.5239C128.666 22.5239 125.786 23.1199 123.172 24.3112C120.557 25.5026 118.314 27.1387 116.442 29.2153C114.57 31.2933 113.114 33.692 112.075 36.41C111.035 39.1301 110.516 41.9877 110.516 44.981C110.516 48.0371 111.035 50.9089 112.075 53.5969C113.114 56.2867 114.57 58.67 116.442 60.7466C118.314 62.8246 120.556 64.4589 123.172 65.6502C125.785 66.8415 128.666 67.4375 131.817 67.4375C134.253 67.4375 136.675 66.8261 139.081 65.6047C141.487 64.3834 143.344 62.7029 144.652 60.5635V66.3383H154.366V23.6243H144.652V29.3985ZM143.76 50.2052C143.165 51.8556 142.334 53.2915 141.265 54.5135C140.194 55.7361 138.903 56.7136 137.387 57.4467C135.872 58.1803 134.193 58.5465 132.351 58.5465C130.509 58.5465 128.844 58.1803 127.36 57.4467C125.873 56.7131 124.597 55.7361 123.528 54.5135C122.457 53.2915 121.641 51.8556 121.076 50.2052C120.51 48.5557 120.231 46.8137 120.231 44.981C120.231 43.1476 120.51 41.4058 121.076 39.7561C121.64 38.1064 122.457 36.6711 123.528 35.4485C124.597 34.2271 125.875 33.2483 127.36 32.5154C128.844 31.7818 130.509 31.4155 132.351 31.4155C134.193 31.4155 135.872 31.7818 137.387 32.5154C138.903 33.249 140.194 34.2271 141.265 35.4485C142.334 36.6711 143.165 38.1064 143.76 39.7561C144.353 41.4058 144.652 43.1476 144.652 44.981C144.652 46.8137 144.353 48.5557 143.76 50.2052Z" />
    <path class="laravel" d="M260.938 2.17578H251.224V66.3381H260.938V2.17578Z" />
    <path class="laravel" d="M83.0649 66.3379H92.7799V33.4547H109.446V23.6245H83.0649V66.3379Z" />
    <path class="laravel" d="M193.315 23.6245L181.104 56.3336L168.895 23.6245H159.054L174.999 66.3379H187.209L203.154 23.6245H193.315Z" />
    <path class="laravel" d="M224.342 22.5259C212.446 22.5259 203.029 32.5801 203.029 44.9817C203.029 58.6913 212.143 67.4376 225.586 67.4376C233.111 67.4376 237.915 64.4788 243.784 58.035L237.22 52.8127C237.216 52.8178 232.266 59.5016 224.876 59.5016C216.285 59.5016 212.668 52.3787 212.668 48.6934H244.897C246.59 34.5824 237.569 22.5259 224.342 22.5259ZM212.693 41.2696C212.768 40.4476 213.887 30.4612 224.264 30.4612C234.642 30.4612 235.902 40.4462 235.974 41.2696H212.693Z" />
    <path class="telescope" d="M619.146 67.0228C615.043 67.0228 611.418 66.0669 608.271 64.1552C605.123 62.1873 602.65 59.5166 600.852 56.1431C599.054 52.7695 598.154 48.8899 598.154 44.5043C598.154 40.1187 599.025 36.2672 600.768 32.9499C602.566 29.5764 605.067 26.9619 608.271 25.1064C611.474 23.251 615.155 22.3232 619.314 22.3232C623.305 22.3232 626.761 23.1947 629.684 24.9377C632.662 26.6807 634.938 29.1266 636.512 32.2752C638.142 35.4239 638.957 39.1348 638.957 43.4079C638.957 43.9702 638.929 44.5043 638.873 45.0104C638.873 45.5164 638.816 46.0786 638.704 46.6971H603.212V41.0464H634.573L632.381 44.167C632.381 38.9942 631.229 35.0303 628.925 32.2752C626.677 29.4639 623.473 28.0583 619.314 28.0583C615.043 28.0583 611.587 29.5483 608.945 32.5282C606.36 35.452 605.067 39.4159 605.067 44.42C605.067 49.5365 606.36 53.641 608.945 56.7334C611.587 59.7696 615.099 61.2877 619.483 61.2877C622.237 61.2877 624.653 60.6974 626.733 59.5166C628.812 58.2796 630.33 56.5366 631.285 54.2876H637.692C636.287 58.2234 633.927 61.344 630.611 63.6492C627.351 65.8982 623.529 67.0228 619.146 67.0228Z" />
    <path class="telescope" d="M574.322 66.9384C570.275 66.9384 566.875 65.9545 564.121 63.9866C561.367 62.0187 559.485 59.2355 558.473 55.637L559.822 55.4684V83.4688H553.078V23.1666H559.4V33.2029L558.473 32.9499C559.541 29.6326 561.564 27.0462 564.543 25.1908C567.522 23.2791 570.978 22.3232 574.912 22.3232C578.734 22.3232 582.05 23.251 584.86 25.1064C587.726 26.9619 589.946 29.5483 591.52 32.8656C593.093 36.1829 593.88 40.0625 593.88 44.5043C593.88 49.0024 593.065 52.9382 591.435 56.3117C589.806 59.6853 587.529 62.2998 584.607 64.1552C581.684 66.0107 578.256 66.9384 574.322 66.9384ZM573.31 61.0347C577.582 61.0347 580.926 59.5728 583.342 56.6491C585.759 53.6691 586.967 49.6209 586.967 44.5043C586.967 39.444 585.759 35.4801 583.342 32.6126C580.926 29.6888 577.582 28.227 573.31 28.227C569.039 28.227 565.667 29.7169 563.194 32.6969C560.721 35.6206 559.485 39.6408 559.485 44.7573C559.485 49.7614 560.721 53.7254 563.194 56.6491C565.667 59.5728 569.039 61.0347 573.31 61.0347Z" />
    <path class="telescope" d="M524.395 67.0228C520.18 67.0228 516.47 66.0388 513.267 64.0709C510.063 62.103 507.562 59.4323 505.764 56.0587C504.022 52.629 503.15 48.7775 503.15 44.5043C503.15 40.1749 504.05 36.3516 505.848 33.0343C507.647 29.7169 510.119 27.1024 513.267 25.1908C516.47 23.2791 520.18 22.3232 524.395 22.3232C528.666 22.3232 532.375 23.2791 535.523 25.1908C538.726 27.1024 541.199 29.7169 542.941 33.0343C544.74 36.3516 545.639 40.1749 545.639 44.5043C545.639 48.7775 544.74 52.629 542.941 56.0587C541.199 59.4323 538.726 62.103 535.523 64.0709C532.375 66.0388 528.666 67.0228 524.395 67.0228ZM524.395 61.2877C527.317 61.2877 529.846 60.5849 531.982 59.1793C534.118 57.7174 535.776 55.7214 536.956 53.1912C538.136 50.6611 538.726 47.7373 538.726 44.42C538.726 39.4721 537.405 35.5082 534.764 32.5282C532.179 29.5483 528.722 28.0583 524.395 28.0583C520.123 28.0583 516.667 29.5483 514.025 32.5282C511.384 35.5082 510.063 39.4721 510.063 44.42C510.063 47.7373 510.653 50.6611 511.834 53.1912C513.014 55.7214 514.672 57.7174 516.807 59.1793C518.999 60.5849 521.528 61.2877 524.395 61.2877Z" />
    <path class="telescope" d="M481.443 67.0228C477.509 67.0228 473.997 66.0669 470.905 64.1552C467.871 62.1873 465.454 59.5166 463.655 56.1431C461.913 52.7133 461.042 48.8337 461.042 44.5043C461.042 40.1749 461.913 36.3516 463.655 33.0343C465.454 29.7169 467.871 27.1024 470.905 25.1908C473.997 23.2791 477.481 22.3232 481.359 22.3232C484.562 22.3232 487.429 22.9417 489.958 24.1787C492.543 25.4157 494.651 27.1868 496.281 29.492C497.967 31.7411 499.034 34.3837 499.484 37.4199H493.246C492.684 34.6648 491.391 32.4158 489.368 30.6728C487.344 28.9298 484.731 28.0583 481.528 28.0583C478.774 28.0583 476.385 28.733 474.362 30.0824C472.339 31.4318 470.765 33.3435 469.641 35.8174C468.517 38.2914 467.955 41.187 467.955 44.5043C467.955 47.8216 468.517 50.7454 469.641 53.2755C470.765 55.8057 472.339 57.7736 474.362 59.1793C476.441 60.5849 478.858 61.2877 481.612 61.2877C484.703 61.2877 487.288 60.4443 489.368 58.7576C491.447 57.0146 492.768 54.7655 493.33 52.0105H499.568C499.063 54.9904 497.939 57.6331 496.196 59.9383C494.51 62.1873 492.403 63.9303 489.874 65.1673C487.344 66.4043 484.534 67.0228 481.443 67.0228Z" />
    <path class="telescope" d="M440.346 67.0228C435.063 67.0228 430.848 65.8139 427.701 63.3962C424.553 60.9223 422.755 57.4363 422.305 52.9382H428.796C429.19 55.6933 430.398 57.8017 432.422 59.2636C434.445 60.7255 437.142 61.4564 440.515 61.4564C443.493 61.4564 445.826 60.8941 447.512 59.7696C449.198 58.6451 450.041 57.0427 450.041 54.9623C450.041 53.5005 449.563 52.2354 448.608 51.1671C447.652 50.0426 445.741 49.1148 442.875 48.3839L435.962 46.6128C432.028 45.6007 429.078 44.0545 427.11 41.9742C425.143 39.8376 424.16 37.3074 424.16 34.3837C424.16 30.6728 425.537 27.749 428.291 25.6125C431.045 23.4196 434.782 22.3232 439.503 22.3232C444.168 22.3232 447.961 23.4478 450.884 25.6968C453.806 27.9458 455.464 31.0664 455.858 35.0584H449.366C448.973 32.7531 447.905 30.982 446.163 29.745C444.421 28.5081 442.116 27.8896 439.25 27.8896C436.496 27.8896 434.36 28.4237 432.843 29.492C431.326 30.5041 430.567 31.966 430.567 33.8776C430.567 35.3395 431.101 36.6046 432.169 37.6729C433.293 38.7412 435.147 39.6408 437.733 40.3717L444.477 42.2272C448.467 43.2955 451.474 44.926 453.497 47.1188C455.521 49.3116 456.532 51.9542 456.532 55.0467C456.532 58.8138 455.099 61.7656 452.233 63.9022C449.366 65.9826 445.404 67.0228 440.346 67.0228Z" />
    <path class="telescope" d="M398.471 67.0228C394.369 67.0228 390.744 66.0669 387.596 64.1552C384.449 62.1873 381.976 59.5166 380.178 56.1431C378.379 52.7695 377.48 48.8899 377.48 44.5043C377.48 40.1187 378.351 36.2672 380.093 32.9499C381.892 29.5764 384.393 26.9619 387.596 25.1064C390.8 23.251 394.481 22.3232 398.64 22.3232C402.63 22.3232 406.087 23.1947 409.009 24.9377C411.988 26.6807 414.264 29.1266 415.838 32.2752C417.468 35.4239 418.283 39.1348 418.283 43.4079C418.283 43.9702 418.254 44.5043 418.198 45.0104C418.198 45.5164 418.142 46.0786 418.03 46.6971H382.538V41.0464H413.899L411.707 44.167C411.707 38.9942 410.555 35.0303 408.251 32.2752C406.002 29.4639 402.799 28.0583 398.64 28.0583C394.369 28.0583 390.912 29.5483 388.271 32.5282C385.685 35.452 384.393 39.4159 384.393 44.42C384.393 49.5365 385.685 53.641 388.271 56.7334C390.912 59.7696 394.425 61.2877 398.809 61.2877C401.563 61.2877 403.979 60.6974 406.059 59.5166C408.138 58.2796 409.656 56.5366 410.611 54.2876H417.018C415.613 58.2234 413.253 61.344 409.937 63.6492C406.677 65.8982 402.855 67.0228 398.471 67.0228Z" />
    <path class="telescope" d="M363.277 66.1792V1.92139H370.022V66.1792H363.277Z" />
    <path class="telescope" d="M335.987 67.0228C331.884 67.0228 328.259 66.0669 325.112 64.1552C321.965 62.1873 319.492 59.5166 317.693 56.1431C315.895 52.7695 314.996 48.8899 314.996 44.5043C314.996 40.1187 315.867 36.2672 317.609 32.9499C319.407 29.5764 321.908 26.9619 325.112 25.1064C328.315 23.251 331.997 22.3232 336.156 22.3232C340.146 22.3232 343.602 23.1947 346.525 24.9377C349.504 26.6807 351.78 29.1266 353.353 32.2752C354.983 35.4239 355.798 39.1348 355.798 43.4079C355.798 43.9702 355.77 44.5043 355.714 45.0104C355.714 45.5164 355.658 46.0786 355.545 46.6971H320.054V41.0464H351.414L349.223 44.167C349.223 38.9942 348.07 35.0303 345.766 32.2752C343.518 29.4639 340.315 28.0583 336.156 28.0583C331.884 28.0583 328.428 29.5483 325.786 32.5282C323.201 35.452 321.908 39.4159 321.908 44.42C321.908 49.5365 323.201 53.641 325.786 56.7334C328.428 59.7696 331.94 61.2877 336.324 61.2877C339.078 61.2877 341.495 60.6974 343.574 59.5166C345.654 58.2796 347.171 56.5366 348.127 54.2876H354.534C353.129 58.2234 350.768 61.344 347.452 63.6492C344.193 65.8982 340.371 67.0228 335.987 67.0228Z" />
    <path class="telescope" d="M292.465 66.1795V7.99383H271.643V1.92139H320.201V7.99383H299.378V66.1795H292.465Z" />
    <path class="mcp" d="M651.675 0.878529H663.436L683.884 50.8291H684.637L705.085 0.878529H716.846V65.1366H707.626V18.6373H707.03L688.087 65.0425H680.434L661.491 18.606H660.895V65.1366H651.675V0.878529Z" />
    <path class="mcp" d="M781.608 21.775H771.823C771.446 19.6832 770.746 17.8425 769.721 16.2528C768.697 14.6631 767.442 13.3139 765.958 12.2053C764.473 11.0966 762.811 10.26 760.971 9.69519C759.152 9.13042 757.218 8.84804 755.169 8.84804C751.468 8.84804 748.154 9.77886 745.227 11.6405C742.321 13.5021 740.021 16.2319 738.327 19.8296C736.655 23.4274 735.818 27.8201 735.818 33.0076C735.818 38.2369 736.655 42.6505 738.327 46.2482C740.021 49.846 742.331 52.5653 745.258 54.406C748.186 56.2467 751.479 57.1671 755.138 57.1671C757.166 57.1671 759.089 56.8952 760.908 56.3513C762.748 55.7865 764.411 54.9603 765.895 53.8726C767.38 52.7849 768.634 51.4567 769.659 49.8879C770.704 48.2981 771.425 46.4783 771.823 44.4284L781.608 44.4598C781.085 47.6183 780.071 50.5258 778.566 53.1823C777.081 55.8179 775.168 58.0979 772.826 60.0223C770.505 61.9258 767.85 63.4005 764.86 64.4463C761.87 65.4922 758.608 66.0151 755.075 66.0151C749.513 66.0151 744.558 64.6973 740.209 62.0617C735.86 59.4052 732.431 55.6087 729.922 50.6723C727.434 45.7358 726.19 39.8475 726.19 33.0076C726.19 26.1467 727.444 20.2584 729.953 15.3429C732.462 10.4064 735.891 6.62034 740.24 3.98475C744.589 1.32825 749.534 0 755.075 0C758.483 0 761.661 0.491558 764.609 1.47468C767.578 2.43687 770.244 3.85925 772.607 5.74181C774.969 7.60345 776.924 9.88344 778.472 12.5818C780.019 15.2592 781.064 18.3236 781.608 21.775Z" />
    <path class="mcp" d="M790.528 65.1366V0.878529H813.423C818.42 0.878529 822.56 1.78843 825.842 3.60824C829.125 5.42805 831.582 7.91721 833.212 11.0757C834.843 14.2133 835.659 17.7484 835.659 21.6808C835.659 25.6342 834.833 29.1901 833.181 32.3487C831.55 35.4863 829.083 37.9754 825.779 39.8162C822.497 41.636 818.367 42.5459 813.391 42.5459H797.647V34.3254H812.513C815.67 34.3254 818.232 33.7815 820.197 32.6938C822.162 31.5852 823.605 30.0791 824.525 28.1757C825.445 26.2722 825.905 24.1072 825.905 21.6808C825.905 19.2544 825.445 17.0999 824.525 15.2174C823.605 13.3348 822.152 11.8601 820.166 10.7933C818.2 9.72656 815.608 9.19317 812.388 9.19317H800.219V65.1366H790.528Z" />
</svg>
